<?xml version='1.0' encoding='utf-8'?>
<svg xmlns="http://www.w3.org/2000/svg" version="1.1" width="600px" height="976px" viewBox="0 0 600 976"> <g id="layer1"> <g style="fill:rgb(0,0,0); fill-opacity:1.0; stroke-linejoin: miter"> <path d="M285.79663,488.45C285.74252,488.45572,285.71658,488.46277,285.6779,488.48123C285.64093,488.49884,285.63126,488.50632,285.5921,488.5459C285.5587,488.57935,285.54153,488.60178,285.52042,488.63696C285.4914,488.6871,285.45663,488.76892,285.43817,488.83224C285.41748,488.9044,285.388,489.06934,285.40033,489.0434C285.40295,489.03854,285.41486,489.00952,285.42673,488.97873C285.46542,488.88065,285.52393,488.77112,285.56967,488.71216C285.60178,488.66995,285.6541,488.62375,285.6858,488.6088C285.71967,488.59296,285.7641,488.58856,285.8063,488.59692C285.8648,488.6079,285.89914,488.63123,285.92023,488.6739C285.93298,488.7003,285.93387,488.70468,285.93213,488.73636C285.92993,488.77023,285.92905,488.77286,285.86835,488.89383C285.78345,489.06317,285.75046,489.13223,285.6735,489.3029C285.61453,489.43353,285.55823,489.57605,285.52216,489.6869C285.48303,489.8061,285.4742,489.84964,285.46674,489.96136C285.44785,490.24155,285.4883,490.40167,285.6119,490.53363L285.6383,490.56223L285.62247,490.59653C285.52612,490.80765,285.51822,491.04825,285.60355,491.17493C285.6541,491.25015,285.73682,491.28665,285.85382,491.28622C285.92023,491.28577,285.9783,491.27435,286.04208,491.24884C286.20615,491.18372,286.38824,491.02054,286.54572,490.79886C286.56287,490.77466,286.5774,490.75708,286.57828,490.7597C286.5831,490.77377,286.4903,491.04782,286.45203,491.13315C286.44675,491.14502,286.4375,491.16525,286.4318,491.178C286.4261,491.19077,286.42123,491.2022,286.42123,491.20352C286.42123,491.20837,286.35043,491.34647,286.32666,491.38782C286.273,491.4815,286.2123,491.5664,286.15863,491.6236L286.13092,491.65262L286.04868,491.63547C285.94794,491.61478,285.88022,491.6082,285.81644,491.61215C285.69415,491.6192,285.59518,491.6566,285.52435,491.7221C285.51028,491.73532,285.49533,491.7463,285.4914,491.7463C285.48785,491.7463,285.4738,491.73355,285.46103,491.7177C285.39197,491.63416,285.35898,491.49384,285.38098,491.37463C285.3889,491.33063,285.39197,491.32053,285.40958,491.28006C285.42935,491.2343,285.44785,491.20572,285.4839,491.16483C285.49182,491.15558,285.4971,491.1481,285.49533,491.1481C285.48785,491.1481,285.43594,491.189,285.3999,491.22287C285.31894,491.2981,285.26794,491.38385,285.24197,491.4868C285.23273,491.52286,285.2314,491.53827,285.23187,491.60117C285.2323,491.66495,285.2336,491.67902,285.24374,491.71683C285.26486,491.79556,285.29697,491.8642,285.33832,491.9183C285.34973,491.93326,285.36163,491.9491,285.3647,491.95303C285.3691,491.9592,285.36777,491.96933,285.3559,492.01285C285.34183,492.06433,285.34183,492.06653,285.3414,492.16418C285.3414,492.25742,285.34225,492.26624,285.35416,492.3181C285.36075,492.34848,285.37393,492.39597,285.38318,492.42368C285.44122,492.60095,285.53976,492.68893,285.66556,492.6766C285.69855,492.6731,285.70032,492.66824,285.6726,492.66077C285.6198,492.6467,285.56308,492.608,285.5257,492.5609C285.50412,492.5332,285.4751,492.47955,285.4672,492.45227C285.4641,492.4426,285.46014,492.43073,285.45795,492.4259C285.45575,492.42105,285.4496,492.39642,285.4443,492.3709C285.43594,492.33176,285.43463,492.3102,285.4342,492.23016C285.4342,492.13162,285.4377,492.10568,285.46014,492.0529L285.46674,492.03662L285.50766,492.05685C285.58594,492.09644,285.6383,492.1114,285.73154,492.12064C285.8556,492.13293,286.0346,492.0982,286.15643,492.03793C286.19382,492.0199,286.19867,492.0186,286.21362,492.02255C286.2224,492.02518,286.24792,492.03223,286.2695,492.03793C286.39352,492.07224,286.52063,492.0841,286.61258,492.07004C286.71463,492.0542,286.77267,492.0243,286.8501,491.94733C286.935,491.86288,286.99744,491.76038,287.04584,491.62753C287.06122,491.58487,287.0687,491.56113,287.0872,491.4956C287.09335,491.4749,287.10565,491.39706,287.12634,491.25058C287.13644,491.1811,287.13864,491.19736,287.147,491.3922C287.1527,491.5352,287.15845,491.61655,287.16766,491.68692C287.1844,491.81845,287.17075,491.92532,287.1136,492.10962C287.092,492.17914,287.0555,492.2812,287.03265,492.33572C286.93015,492.58072,286.90375,492.69025,286.90375,492.87454C286.90375,493.1521,286.9781,493.30692,287.14877,493.38477C287.1844,493.4006,287.30887,493.44373,287.35812,493.4569C287.46194,493.4842,287.5873,493.49564,287.61325,493.47934C287.62115,493.47452,287.62115,493.47452,287.56708,493.46176C287.4967,493.4446,287.37222,493.40106,287.31195,493.372C287.2121,493.32407,287.1536,493.27658,287.12634,493.22116L287.114,493.19565L287.11444,493.10327C287.1149,492.93567,287.1457,492.77206,287.202,492.63306C287.22266,492.5825,287.28116,492.44568,287.29214,492.42148C287.2992,492.4061,287.34756,492.27765,287.3577,492.24686C287.3634,492.2306,287.36914,492.21606,287.37134,492.21475C287.37354,492.21344,287.37662,492.2196,287.37793,492.22882C287.39728,492.341,287.41797,492.41666,287.454,492.50287C287.52222,492.66736,287.62204,492.78613,287.7373,492.83893C287.78128,492.85916,287.82086,492.87057,287.88684,492.88113C288.0245,492.90314,288.0971,492.8864,288.23785,492.80066C288.29767,492.7646,288.31393,492.75314,288.3113,492.7505C288.31,492.74963,288.30164,492.75183,288.2924,492.75577C288.26117,492.76852,288.2097,492.77997,288.15207,492.78702C288.02893,492.8015,287.915,492.7738,287.82526,492.70782C287.73334,492.63965,287.66296,492.53586,287.61325,492.39246C287.58334,492.30713,287.57587,492.2627,287.57587,492.16418C287.57587,492.07532,287.57806,492.05994,287.59872,491.98822C287.60974,491.94952,287.61237,491.94293,287.63965,491.88486C287.66998,491.81934,287.7417,491.71948,287.79932,491.6636L287.82306,491.63986L287.8666,491.66495C287.93918,491.70673,287.9823,491.7252,288.0597,491.7463C288.07907,491.7516,288.11557,491.76257,288.14066,491.77094C288.19693,491.78986,288.27655,491.8092,288.35046,491.82196C288.4173,491.83295,288.54663,491.8356,288.59415,491.82635C288.67154,491.8114,288.7327,491.78766,288.78503,491.7529C288.86026,491.70322,288.9447,491.58224,288.99442,491.4538C289.00452,491.42697,289.01465,491.40146,289.01685,491.3966C289.02255,491.38254,289.0419,491.31128,289.04895,491.27786C289.0626,491.21057,289.0648,491.19693,289.0696,491.1459C289.07578,491.08124,289.0727,491.01395,289.05994,490.95367C289.04102,490.86218,289.012,490.80502,288.95615,490.74915C288.9249,490.71793,288.91302,490.70956,288.87476,490.6911C288.81232,490.66162,288.78415,490.65457,288.71027,490.65237C288.6566,490.65063,288.6434,490.6515,288.6091,490.65985C288.51453,490.68362,288.43842,490.7386,288.40323,490.80896C288.38037,490.8534,288.383,490.86087,288.40982,490.83008C288.48682,490.74298,288.5871,490.71793,288.67682,490.76367C288.7692,490.8103,288.83386,490.89297,288.8585,490.9968C288.8796,491.0861,288.85806,491.20264,288.79956,491.31613C288.74588,491.41992,288.6742,491.4824,288.57654,491.50922C288.5,491.53033,288.38388,491.51538,288.27524,491.47052C288.21542,491.4459,288.1279,491.39706,288.1279,491.38828C288.1279,491.3852,288.13318,491.37814,288.1393,491.37198C288.14548,491.36627,288.16922,491.33945,288.19165,491.31305C288.27347,491.21628,288.3223,491.13754,288.33682,491.07993C288.35178,491.021,288.34122,490.944,288.30823,490.87274C288.27393,490.79797,288.193,490.69592,288.1147,490.62775C288.08258,490.60004,287.99857,490.5411,287.9911,490.5411C287.98184,490.5411,287.98846,490.52835,288.00473,490.51514C288.0245,490.4993,288.03418,490.48303,288.05048,490.43555C288.0716,490.37308,288.07642,490.34537,288.07687,490.26837C288.0773,490.22043,288.07996,490.18878,288.0839,490.17468C288.08963,490.1558,288.08963,490.1514,288.08258,490.13248C288.07245,490.10345,288.07333,490.09683,288.0883,490.08188C288.10544,490.0652,288.116,490.0322,288.1129,490.00534C288.10767,489.95786,288.10767,489.95828,288.11777,489.95697C288.13757,489.9543,288.1631,489.913,288.1631,489.8844C288.1631,489.8668,288.17407,489.85492,288.19034,489.85492C288.20618,489.85492,288.22992,489.83734,288.23874,489.8193C288.24753,489.80038,288.27304,489.78806,288.32318,489.7775C288.35266,489.77136,288.35837,489.7718,288.38565,489.77795C288.46262,489.79553,288.51056,489.85754,288.54752,489.98688C288.56335,490.0414,288.56775,490.11047,288.5585,490.1549C288.55588,490.16766,288.5462,490.19406,288.53696,490.21384C288.50925,490.27145,288.45776,490.31412,288.383,490.34097C288.3434,490.35504,288.27216,490.36957,288.24225,490.36957C288.22992,490.36957,288.22025,490.3713,288.22025,490.3735C288.22025,490.38098,288.2792,490.4008,288.3122,490.40475C288.44458,490.4197,288.57434,490.34537,288.63153,490.2222C288.69223,490.09244,288.7041,489.86282,288.6566,489.7423C288.63242,489.68207,288.5814,489.61914,288.52817,489.58484C288.4349,489.5246,288.28314,489.49423,288.17407,489.51358C288.0166,489.54218,287.90488,489.6451,287.8587,489.8052C287.84903,489.83777,287.84857,489.84613,287.84988,489.96094C287.85123,490.09772,287.8455,490.1571,287.82657,490.21384C287.80328,490.28336,287.76105,490.3392,287.7109,490.3665C287.6854,490.3801,287.62866,490.39594,287.60358,490.39594C287.58334,490.39594,287.5411,490.3757,287.52484,490.35767C287.454,490.28113,287.39508,490.1395,287.39288,490.03967C287.39246,490.0137,287.39377,490.00888,287.40826,489.98776C287.43597,489.9464,287.45227,489.87164,287.4426,489.82898C287.43863,489.81183,287.43906,489.8074,287.4505,489.78497C287.5103,489.66666,287.52396,489.5259,287.48746,489.39615C287.4593,489.29587,287.40256,489.19162,287.34363,489.13354C287.26578,489.0557,287.1756,488.99896,287.08762,488.97256C287.052,488.962,287.041,488.9607,286.97986,488.96027C286.92224,488.96027,286.9064,488.962,286.8765,488.97037C286.763,489.00247,286.6315,489.09616,286.56595,489.19205C286.53296,489.24,286.49646,489.31213,286.4793,489.36447C286.46347,489.41153,286.44763,489.50302,286.44763,489.54526C286.44763,489.57782,286.46127,489.66403,286.47137,489.69702C286.4793,489.72253,286.50482,489.78497,286.5101,489.79202C286.51273,489.79553,286.51273,489.80875,286.50922,489.82898C286.49997,489.88263,286.51492,489.94818,286.5466,489.9917C286.56375,490.0159,286.56506,490.02515,286.5554,490.06912C286.5259,490.20767,286.44016,490.32513,286.31964,490.39066C286.24792,490.43027,286.19604,490.44214,286.09573,490.44214C286.028,490.44214,286.0148,490.4408,285.9871,490.432C285.9695,490.4263,285.955,490.42102,285.955,490.41925C285.955,490.41794,285.97345,490.3977,285.9959,490.3744C286.03592,490.3326,286.1252,490.22705,286.20526,490.12762C286.31918,489.98645,286.38474,489.85315,286.40012,489.73264C286.40717,489.6759,286.401,489.63806,286.3755,489.58484C286.32535,489.4806,286.22638,489.42957,286.14587,489.46652C286.1318,489.4727,286.1107,489.48764,286.0997,489.49863C286.0764,489.52194,286.04517,489.58176,286.0403,489.613L286.03723,489.63235L286.06274,489.60245C286.11597,489.53955,286.15115,489.51624,286.1925,489.51624C286.2132,489.51624,286.22067,489.51843,286.23563,489.529C286.28796,489.56726,286.31436,489.6552,286.29544,489.72913C286.25452,489.89056,286.18414,489.9992,286.05835,490.09464C286.00952,490.13202,285.93695,490.19537,285.87143,490.25827C285.81555,490.31192,285.82083,490.3115,285.7971,490.26398C285.76892,490.20813,285.75,490.14304,285.7364,490.05637C285.72583,489.98688,285.72583,489.83734,285.73682,489.76474C285.75134,489.66797,285.78564,489.54703,285.81906,489.474C285.9871,489.10672,286.04208,488.97522,286.07156,488.87183C286.13312,488.65543,286.0733,488.494,285.9189,488.45837C285.88947,488.45178,285.8226,488.44693,285.79663,488.45 Z M285.89606,490.7021C285.9207,490.71045,285.9497,490.7219,285.9607,490.72803C285.97787,490.7377,285.9871,490.73947,286.02844,490.74078C286.05438,490.74167,286.09662,490.74475,286.12213,490.7474C286.18634,490.75354,286.25717,490.7553,286.2783,490.75046C286.29498,490.74652,286.29544,490.74695,286.28928,490.75443C286.2783,490.76764,286.16525,490.85077,286.1349,490.86746C286.09485,490.8899,285.95984,490.9339,285.9308,490.9339C285.8648,490.9339,285.83182,490.87143,285.83182,490.74564C285.83182,490.68976,285.834,490.68008,285.84457,490.68405C285.84854,490.68582,285.87186,490.69373,285.89606,490.7021 Z M287.70343,490.79227C287.7197,490.79974,287.73026,490.80106,287.75137,490.7993C287.7804,490.7971,287.8024,490.80457,287.8024,490.81644C287.8024,490.83624,287.84155,490.86658,287.87936,490.87582C287.90884,490.8833,287.91895,490.89343,287.9251,490.9207C287.92776,490.93344,287.93524,490.95148,287.94095,490.96115C287.96426,490.999,287.96558,491.00516,287.9603,491.03726C287.95193,491.08563,287.9229,491.15515,287.90268,491.17273C287.89255,491.18198,287.8965,491.18637,287.83847,491.09973C287.77908,491.0113,287.6933,490.84503,287.68143,490.7949C287.67746,490.78082,287.67703,490.78082,287.70343,490.79227 Z M286.89453,490.95984C286.88528,491.22287,286.82416,491.4503,286.72385,491.59543C286.68253,491.65527,286.61038,491.71902,286.55936,491.74014C286.54,491.74808,286.49292,491.75644,286.48413,491.75336C286.48016,491.7516,286.4916,491.73093,286.52197,491.68604C286.65482,491.48767,286.7793,491.22333,286.8721,490.94226C286.8835,490.90793,286.89365,490.8798,286.89542,490.8798C286.89673,490.8798,286.89627,490.91586,286.89453,490.95984 Z M287.531,491.32492C287.5442,491.3522,287.5662,491.3922,287.57983,491.4138C287.59344,491.43488,287.60446,491.45425,287.60446,491.45645C287.60446,491.45865,287.59302,491.4723,287.57938,491.48724C287.54993,491.51804,287.49756,491.58707,287.48526,491.61084C287.48087,491.61963,287.47513,491.628,287.4734,491.6293C287.4681,491.6324,287.46237,491.31393,287.46634,491.2339L287.46942,491.16876L287.48834,491.222C287.49844,491.25104,287.5178,491.29767,287.531,491.32492 Z"/> </g> </g> </svg>